<?xml version="1.0" encoding="UTF-8"?>
<!DOCTYPE svg PUBLIC "-//W3C//DTD SVG 1.0//EN" "http://www.w3.org/TR/2001/REC-SVG-20010904/DTD/svg10.dtd">
<!-- Creator: CorelDRAW X7 -->
<svg xmlns="http://www.w3.org/2000/svg" xml:space="preserve" width="333px" height="333px" version="1.0" style="shape-rendering:geometricPrecision; text-rendering:geometricPrecision; image-rendering:optimizeQuality; fill-rule:evenodd; clip-rule:evenodd"
viewBox="0 0 554 554"
 xmlns:xlink="http://www.w3.org/1999/xlink">
 <defs>
  <style type="text/css">
   <![CDATA[
    .fil0 {fill:white}
    .fil1 {fill:url(#id0)}
   ]]>
  </style>
  <linearGradient id="id0" gradientUnits="userSpaceOnUse" x1="144.831" y1="409.613" x2="409.609" y2="144.827">
   <stop offset="0" style="stop-opacity:1; stop-color:#5533FF"/>
   <stop offset="1" style="stop-opacity:1; stop-color:#00FFCC"/>
  </linearGradient>
 </defs>
 <g id="Layer_x0020_1">
  <metadata id="CorelCorpID_0Corel-Layer"/>
  <path id="logo-background" class="fil0" d="M277 0c-152,0 -277,125 -277,277l0 0c0,153 125,277 277,277 153,0 277,-124 277,-277l0 0c0,-152 -124,-277 -277,-277z"/>
  <path id="logo-gradient" class="fil1" d="M327 425c-96,14 -165,-114 -80,-169 25,-16 70,-10 74,27 3,36 -38,57 -70,27 51,83 162,5 109,-94 -21,-40 -70,-54 -120,-45 -67,12 -132,71 -109,210 -21,-29 -33,-65 -33,-104 0,-98 81,-179 179,-179 98,0 178,79 179,176 -1,71 -49,140 -129,151zm-278 -148c0,126 103,228 228,228 126,0 228,-102 228,-228 0,-125 -102,-228 -228,-228 -125,0 -228,103 -228,228z"/>
 </g>
</svg>
